<svg width="45" height="45" viewBox="0 0 45 45" fill="none" xmlns="http://www.w3.org/2000/svg">
<path d="M15 9.78125C14.7835 9.78125 14.5938 9.59147 14.5938 9.375V3.75C14.5938 3.53353 14.7835 3.34375 15 3.34375C15.2165 3.34375 15.4062 3.53353 15.4062 3.75V9.375C15.4062 9.59147 15.2165 9.78125 15 9.78125Z" fill="white" stroke="white" stroke-width="2"/>
<path d="M30 9.78125C29.7835 9.78125 29.5938 9.59147 29.5938 9.375V3.75C29.5938 3.53353 29.7835 3.34375 30 3.34375C30.2165 3.34375 30.4062 3.53353 30.4062 3.75V9.375C30.4062 9.59147 30.2165 9.78125 30 9.78125Z" fill="white" stroke="white" stroke-width="2"/>
<path d="M16.7681 25.5778L16.7363 25.6413L16.7138 25.7088C16.7092 25.7225 16.6997 25.7459 16.6799 25.7791L16.6004 25.8784L16.5386 25.9557C16.361 26.1052 16.136 26.1875 15.9375 26.1875C15.7303 26.1875 15.4944 26.0979 15.3136 25.9358C15.1485 25.7526 15.0625 25.5328 15.0625 25.3125C15.0625 25.2204 15.0844 25.1073 15.1356 24.9846C15.1811 24.8754 15.2443 24.7718 15.3304 24.672C15.6305 24.3939 16.2303 24.3831 16.5571 24.6844C16.7216 24.8658 16.8125 25.1037 16.8125 25.3125C16.8125 25.3383 16.8072 25.39 16.7877 25.5278C16.7858 25.5358 16.7809 25.5522 16.7681 25.5778Z" fill="white" stroke="white" stroke-width="2"/>
<path d="M22.1721 26.1158L22.1594 26.1105L22.1465 26.1055C22.0572 26.0712 21.9787 26.0243 21.8697 25.93C21.7088 25.7482 21.625 25.5312 21.625 25.3138C21.625 25.2218 21.6469 25.1086 21.6981 24.9859L20.775 24.6013L21.6981 24.9859C21.7411 24.8827 21.8001 24.7844 21.8791 24.6895C21.9833 24.6006 22.0599 24.5555 22.1465 24.5221L22.1549 24.5189L22.1632 24.5155C22.4992 24.3793 22.8869 24.4608 23.1149 24.6806C23.2823 24.8626 23.375 25.1031 23.375 25.3138C23.375 25.3397 23.3697 25.3914 23.3502 25.5291C23.3483 25.5371 23.3434 25.5535 23.3306 25.5791L23.2988 25.6427L23.2763 25.7101C23.2705 25.7275 23.2567 25.7604 23.2242 25.8091L23.211 25.8289L23.2084 25.8333C23.2045 25.8381 23.1984 25.8456 23.1889 25.8567C23.1784 25.869 23.17 25.8788 23.1589 25.8916C23.1517 25.8998 23.1435 25.9093 23.1329 25.9216C23.1249 25.9308 23.1161 25.9411 23.1066 25.9523C22.9282 26.1048 22.7006 26.1888 22.5 26.1888C22.4079 26.1888 22.2948 26.1669 22.1721 26.1158Z" fill="white" stroke="white" stroke-width="2"/>
<path d="M15.6096 32.6767L15.5969 32.6714L15.584 32.6664C15.4585 32.6181 15.3742 32.5597 15.3134 32.4988C15.2525 32.438 15.1941 32.3538 15.1458 32.2282L15.1409 32.2154L15.1356 32.2026C15.0844 32.0799 15.0625 31.9668 15.0625 31.8747C15.0625 31.7827 15.0844 31.6695 15.1356 31.5468L15.1409 31.5341L15.1458 31.5212C15.1941 31.3956 15.2525 31.3114 15.3134 31.2506C15.3742 31.1897 15.4585 31.1313 15.584 31.083L15.5969 31.0781L15.6096 31.0728C15.8398 30.9769 16.0715 30.9846 16.2333 31.0588L16.2618 31.0718L16.291 31.083C16.4165 31.1313 16.5008 31.1897 16.5616 31.2506C16.6225 31.3114 16.6809 31.3956 16.7292 31.5212L16.7341 31.5341L16.7394 31.5468C16.7906 31.6695 16.8125 31.7827 16.8125 31.8747C16.8125 31.9668 16.7906 32.0799 16.7394 32.2026L16.7341 32.2154L16.7292 32.2282C16.6809 32.3538 16.6225 32.438 16.5616 32.4988C16.5008 32.5597 16.4165 32.6181 16.291 32.6664L16.2781 32.6714L16.2654 32.6767C16.1427 32.7278 16.0296 32.7497 15.9375 32.7497C15.8454 32.7497 15.7323 32.7278 15.6096 32.6767Z" fill="white" stroke="white" stroke-width="2"/>
<path d="M38.4375 17.4492H6.5625C6.34603 17.4492 6.15625 17.2594 6.15625 17.043C6.15625 16.8265 6.34603 16.6367 6.5625 16.6367H38.4375C38.654 16.6367 38.8438 16.8265 38.8438 17.043C38.8438 17.2594 38.654 17.4492 38.4375 17.4492Z" fill="white" stroke="white" stroke-width="2"/>
<path d="M28.5526 41.5589L28.5373 41.545L28.5214 41.5318C27.9407 41.0478 27.4133 40.4252 26.9797 39.6913L26.9759 39.6849L26.972 39.6786C26.2441 38.4875 25.8438 37.0745 25.8438 35.625C25.8438 31.2648 29.3898 27.7188 33.75 27.7188C36.0107 27.7188 38.175 28.6998 39.6738 30.3975C40.9597 31.8679 41.6562 33.7155 41.6562 35.625C41.6562 37.073 41.2566 38.4848 40.5112 39.694L40.5065 39.7018L40.5018 39.7096C39.1094 42.0634 36.5142 43.5312 33.75 43.5312C31.797 43.5312 29.9571 42.8311 28.5526 41.5589ZM39.086 30.945L39.0799 30.9378L39.0736 30.9307C37.7216 29.4042 35.7804 28.5312 33.75 28.5312C29.8415 28.5312 26.6562 31.7165 26.6562 35.625C26.6562 36.9047 27.0015 38.1694 27.6773 39.2665C28.0588 39.9345 28.5436 40.4809 29.055 40.9292C30.3669 42.1076 32.0108 42.7188 33.75 42.7188C36.2566 42.7188 38.531 41.4292 39.8182 39.2925C40.4939 38.1801 40.8438 36.9323 40.8438 35.625C40.8438 33.9129 40.2074 32.2605 39.086 30.945Z" fill="white" stroke="white" stroke-width="2"/>
<path d="M32.393 37.7678L32.393 37.7678L30.5368 35.9116C30.5368 35.9115 30.5368 35.9115 30.5368 35.9115C30.3836 35.7583 30.3836 35.4915 30.5368 35.3383C30.69 35.185 30.9568 35.185 31.1101 35.3383C31.1101 35.3383 31.1101 35.3383 31.1101 35.3383L32.0101 36.2383L32.6902 36.9184L33.3962 36.2653L36.3962 33.4903L36.3962 33.4903L36.3995 33.4872C36.5521 33.3448 36.8197 33.3486 36.9736 33.5135C37.1157 33.6657 37.1123 33.9324 36.9485 34.0865L32.9713 37.765C32.8581 37.8596 32.7524 37.8874 32.6797 37.8874C32.5743 37.8874 32.4769 37.8516 32.393 37.7678Z" fill="white" stroke="white" stroke-width="2"/>
<path d="M39.5182 31.0486L39.5182 31.0486L39.5079 31.0525C39.3551 31.1104 39.1778 31.0712 39.0588 30.9352L39.0548 30.9307C37.7028 29.4042 35.7616 28.5313 33.7312 28.5313C29.8227 28.5313 26.6375 31.7165 26.6375 35.625C26.6375 36.9047 26.9827 38.1694 27.6585 39.2665C28.0413 39.9367 28.5282 40.4847 29.0415 40.9338L29.0506 40.9417L29.0598 40.9495C29.1838 41.0527 29.2351 41.2257 29.1736 41.3933L29.1649 41.417L29.1574 41.4411C29.1266 41.5404 29.0085 41.6563 28.8188 41.6563H15C11.7679 41.6563 9.35506 40.7299 7.75008 39.1249C6.14509 37.5199 5.21875 35.1071 5.21875 31.875V15.9375C5.21875 12.7054 6.14509 10.2926 7.75008 8.68758C9.35506 7.08259 11.7679 6.15625 15 6.15625H30C33.2321 6.15625 35.6449 7.08259 37.2499 8.68758C38.8549 10.2926 39.7812 12.7054 39.7812 15.9375V30.675C39.7812 30.8417 39.6822 30.9885 39.5182 31.0486ZM25.9125 40.8438H27.5951L26.7909 39.3658C26.1766 38.2369 25.8438 36.9574 25.8438 35.625C25.8438 31.2648 29.3898 27.7188 33.75 27.7188C35.0647 27.7188 36.3628 28.0522 37.4908 28.6659L38.9688 29.4701V27.7875V15.9375C38.9688 13.1093 38.2815 10.8142 36.7024 9.23508C35.1233 7.65598 32.8282 6.96875 30 6.96875H15C12.1718 6.96875 9.87668 7.65598 8.29758 9.23508C6.71848 10.8142 6.03125 13.1093 6.03125 15.9375V31.875C6.03125 34.7032 6.71848 36.9983 8.29758 38.5774C9.87668 40.1565 12.1718 40.8438 15 40.8438H25.9125Z" fill="white" stroke="white" stroke-width="2"/>
</svg>
