<svg width="45" height="46" viewBox="0 0 45 46" fill="none" xmlns="http://www.w3.org/2000/svg">
<path d="M39.375 43.6055H5.625C4.85625 43.6055 4.21875 42.9538 4.21875 42.168C4.21875 41.3821 4.85625 40.7305 5.625 40.7305H39.375C40.1437 40.7305 40.7812 41.3821 40.7812 42.168C40.7812 42.9538 40.1437 43.6055 39.375 43.6055Z" fill="white"/>
<path d="M10.5 37.855H7.5C5.7 37.855 4.21875 36.3408 4.21875 34.5008V17.9792C4.21875 16.1392 5.7 14.625 7.5 14.625H10.5C12.3 14.625 13.7812 16.1392 13.7812 17.9792V34.5008C13.7812 36.3408 12.3 37.855 10.5 37.855ZM7.5 17.4808C7.2375 17.4808 7.03125 17.6916 7.03125 17.96V34.5008C7.03125 34.7692 7.2375 34.98 7.5 34.98H10.5C10.7625 34.98 10.9687 34.7692 10.9687 34.5008V17.9792C10.9687 17.7108 10.7625 17.5 10.5 17.5H7.5V17.4808Z" fill="white"/>
<path d="M24 37.8539H21C19.2 37.8539 17.7188 36.3398 17.7188 34.4998V11.8639C17.7188 10.0239 19.2 8.50977 21 8.50977H24C25.8 8.50977 27.2812 10.0239 27.2812 11.8639V34.4998C27.2812 36.3398 25.8 37.8539 24 37.8539ZM21 11.3848C20.7375 11.3848 20.5312 11.5956 20.5312 11.8639V34.4998C20.5312 34.7681 20.7375 34.9789 21 34.9789H24C24.2625 34.9789 24.4687 34.7681 24.4687 34.4998V11.8639C24.4687 11.5956 24.2625 11.3848 24 11.3848H21Z" fill="white"/>
<path d="M37.5 37.8529H34.5C32.7 37.8529 31.2188 36.3387 31.2188 34.4987V5.7487C31.2188 3.9087 32.7 2.39453 34.5 2.39453H37.5C39.3 2.39453 40.7812 3.9087 40.7812 5.7487V34.4987C40.7812 36.3387 39.3 37.8529 37.5 37.8529ZM34.5 5.26953C34.2375 5.26953 34.0312 5.48036 34.0312 5.7487V34.4987C34.0312 34.767 34.2375 34.9779 34.5 34.9779H37.5C37.7625 34.9779 37.9687 34.767 37.9687 34.4987V5.7487C37.9687 5.48036 37.7625 5.26953 37.5 5.26953H34.5Z" fill="white"/>
</svg>
