<svg version="1.0" xmlns="http://www.w3.org/2000/svg"
 width="980.000000pt" height="804.000000pt" viewBox="0 0 980.000000 804.000000"
 preserveAspectRatio="xMidYMid meet">

<g transform="translate(0.000000,804.000000) scale(0.100000,-0.100000)"
fill="#FFFFFF" stroke="none">
<path d="M4695 8029 c-619 -59 -1199 -410 -1545 -935 -463 -702 -464 -1605 -3
-2304 110 -167 278 -355 417 -468 22 -17 38 -33 35 -35 -2 -2 -57 -27 -121
-56 -564 -248 -1070 -663 -1437 -1179 -267 -375 -473 -847 -565 -1292 -67
-326 -76 -470 -76 -1177 l0 -583 3501 0 3501 0 -5 673 c-4 696 -6 721 -52 985
-118 683 -464 1342 -970 1847 -307 307 -679 565 -1047 725 -68 30 -125 55
-127 56 -2 2 12 16 30 31 67 54 222 209 283 283 452 542 599 1266 396 1948
-140 473 -475 909 -902 1174 -387 240 -857 350 -1313 307z m485 -719 c276 -56
498 -178 705 -385 210 -210 329 -430 392 -725 25 -118 25 -400 0 -520 -92
-443 -370 -805 -762 -995 -218 -106 -367 -140 -615 -140 -190 0 -266 12 -435
65 -204 66 -380 175 -546 340 -206 203 -330 430 -390 710 -29 138 -32 400 -6
533 94 470 406 856 842 1038 104 43 258 85 367 99 113 14 328 4 448 -20z m74
-3495 c362 -48 720 -167 1025 -341 801 -457 1326 -1271 1411 -2189 5 -60 10
-219 10 -352 l0 -243 -2801 0 -2802 0 6 307 c6 351 21 483 87 737 63 249 150
466 272 679 464 811 1279 1334 2208 1416 140 13 437 6 584 -14z"/>
<path d="M2334 7276 c-196 -56 -395 -152 -554 -264 -121 -86 -316 -280 -403
-402 -80 -113 -195 -339 -236 -465 -150 -454 -111 -946 108 -1361 59 -111 137
-231 202 -306 27 -31 49 -59 49 -61 0 -3 -33 -23 -72 -45 -208 -114 -433 -285
-613 -466 -412 -414 -676 -928 -776 -1509 -31 -183 -41 -374 -37 -742 l3 -350
33 -67 c36 -74 95 -132 170 -169 39 -20 63 -24 142 -24 85 0 101 3 153 29 70
36 130 99 165 174 l27 57 6 425 c6 369 9 441 27 545 47 268 138 516 270 735
279 463 745 812 1267 947 123 31 164 52 222 109 62 63 84 117 90 227 6 91 5
94 -30 162 -46 91 -80 122 -205 189 -308 166 -493 401 -569 725 -27 116 -25
348 6 464 99 383 362 655 741 767 147 44 216 97 269 209 22 47 26 70 26 141 0
71 -4 94 -26 141 -81 173 -255 243 -455 185z"/>
<path d="M7261 7276 c-197 -65 -299 -289 -216 -475 20 -43 46 -78 86 -115 50
-46 72 -59 156 -86 188 -62 331 -147 454 -269 377 -378 412 -977 80 -1393
-103 -131 -216 -220 -379 -302 -97 -49 -147 -96 -188 -178 -27 -54 -34 -79
-34 -127 0 -130 37 -223 113 -284 57 -47 92 -63 173 -82 265 -61 593 -223 817
-404 173 -140 363 -359 479 -551 132 -220 219 -457 269 -735 19 -106 23 -170
28 -545 l6 -425 33 -67 c36 -74 95 -132 170 -169 39 -20 63 -24 142 -24 85 0
101 3 153 29 70 36 130 99 165 174 l27 57 0 435 c-1 364 -4 454 -18 555 -81
543 -274 993 -604 1405 -198 248 -520 518 -800 672 -40 22 -73 43 -73 48 0 4
7 14 16 21 49 41 185 243 249 368 126 252 180 489 179 791 0 171 -4 210 -27
321 -117 556 -456 997 -952 1239 -231 112 -397 150 -504 116z"/>
</g>
</svg>
