<svg width="40" height="40" viewBox="0 0 40 40" fill="none" xmlns="http://www.w3.org/2000/svg">
<path d="M13.3359 37.1996C12.8693 37.1996 12.3859 37.083 11.9526 36.8497C11.0026 36.3497 10.4193 35.3496 10.4193 34.283V31.9164C5.38594 31.3998 2.08594 27.6996 2.08594 22.3996V12.3997C2.08594 6.66641 5.93594 2.81641 11.6693 2.81641H28.3359C34.0693 2.81641 37.9193 6.66641 37.9193 12.3997V22.3996C37.9193 28.133 34.0693 31.983 28.3359 31.983H22.0526L14.9526 36.7164C14.4692 37.0331 13.9026 37.1996 13.3359 37.1996ZM11.6693 5.29972C7.36927 5.29972 4.58594 8.08306 4.58594 12.3831V22.3832C4.58594 26.6832 7.36927 29.4665 11.6693 29.4665C12.3526 29.4665 12.9193 30.0332 12.9193 30.7165V34.2665C12.9193 34.4832 13.0526 34.5831 13.1359 34.6331C13.2193 34.6831 13.386 34.7331 13.5693 34.6164L20.986 29.6832C21.186 29.5498 21.436 29.4665 21.686 29.4665H28.3526C32.6526 29.4665 35.436 26.6832 35.436 22.3832V12.3831C35.436 8.08306 32.6526 5.29972 28.3526 5.29972H11.6693Z" fill="white"/>
<path d="M20.001 20.1836C19.3177 20.1836 18.751 19.6169 18.751 18.9336V18.5837C18.751 16.6503 20.1676 15.7003 20.701 15.3336C21.3176 14.917 21.5176 14.6337 21.5176 14.2003C21.5176 13.367 20.8343 12.6836 20.001 12.6836C19.1677 12.6836 18.4844 13.367 18.4844 14.2003C18.4844 14.8837 17.9177 15.4503 17.2344 15.4503C16.551 15.4503 15.9844 14.8837 15.9844 14.2003C15.9844 11.9837 17.7843 10.1836 20.001 10.1836C22.2177 10.1836 24.0176 11.9837 24.0176 14.2003C24.0176 16.1003 22.6177 17.0503 22.101 17.4003C21.451 17.8336 21.251 18.117 21.251 18.5837V18.9336C21.251 19.6336 20.6843 20.1836 20.001 20.1836Z" fill="white"/>
<path d="M20 24.333C19.3 24.333 18.75 23.7663 18.75 23.083C18.75 22.3997 19.3167 21.833 20 21.833C20.6833 21.833 21.25 22.3997 21.25 23.083C21.25 23.7663 20.7 24.333 20 24.333Z" fill="white"/>
</svg>
