<svg width="40" height="40" viewBox="0 0 40 40" fill="none" xmlns="http://www.w3.org/2000/svg">
<path d="M20 26.25C16.55 26.25 13.75 23.45 13.75 20C13.75 16.55 16.55 13.75 20 13.75C23.45 13.75 26.25 16.55 26.25 20C26.25 23.45 23.45 26.25 20 26.25ZM20 16.25C17.9333 16.25 16.25 17.9333 16.25 20C16.25 22.0667 17.9333 23.75 20 23.75C22.0667 23.75 23.75 22.0667 23.75 20C23.75 17.9333 22.0667 16.25 20 16.25Z" fill="white"/>
<path d="M25.3526 36.9825C25.0026 36.9825 24.6526 36.9325 24.3026 36.8492C23.2693 36.5658 22.4026 35.9158 21.8526 34.9992L21.6526 34.6658C20.6693 32.9658 19.3193 32.9658 18.3359 34.6658L18.1526 34.9825C17.6026 35.9158 16.7359 36.5825 15.7026 36.8492C14.6526 37.1325 13.5693 36.9825 12.6526 36.4325L9.78594 34.7825C8.76927 34.1992 8.03594 33.2492 7.71927 32.0992C7.41927 30.9492 7.56927 29.7658 8.1526 28.7492C8.63594 27.8992 8.76927 27.1325 8.48594 26.6492C8.2026 26.1658 7.48594 25.8825 6.5026 25.8825C4.06927 25.8825 2.08594 23.8992 2.08594 21.4658V18.5325C2.08594 16.0992 4.06927 14.1158 6.5026 14.1158C7.48594 14.1158 8.2026 13.8325 8.48594 13.3492C8.76927 12.8658 8.6526 12.0992 8.1526 11.2492C7.56927 10.2325 7.41927 9.03251 7.71927 7.89917C8.01927 6.74917 8.7526 5.79918 9.78594 5.21584L12.6693 3.56584C14.5526 2.44918 17.0359 3.09918 18.1693 5.01584L18.3693 5.34918C19.3526 7.04918 20.7026 7.04918 21.6859 5.34918L21.8693 5.03251C23.0026 3.09918 25.4859 2.44918 27.3859 3.58251L30.2526 5.23251C31.2693 5.81584 32.0026 6.76584 32.3193 7.91584C32.6193 9.06584 32.4693 10.2492 31.8859 11.2658C31.4026 12.1158 31.2693 12.8825 31.5526 13.3658C31.8359 13.8492 32.5526 14.1325 33.5359 14.1325C35.9693 14.1325 37.9526 16.1158 37.9526 18.5492V21.4825C37.9526 23.9158 35.9693 25.8992 33.5359 25.8992C32.5526 25.8992 31.8359 26.1825 31.5526 26.6658C31.2693 27.1492 31.3859 27.9158 31.8859 28.7658C32.4693 29.7825 32.6359 30.9825 32.3193 32.1158C32.0193 33.2658 31.2859 34.2158 30.2526 34.7992L27.3693 36.4492C26.7359 36.7992 26.0526 36.9825 25.3526 36.9825ZM20.0026 30.8158C21.4859 30.8158 22.8693 31.7492 23.8193 33.3992L24.0026 33.7158C24.2026 34.0658 24.5359 34.3158 24.9359 34.4158C25.3359 34.5158 25.7359 34.4658 26.0693 34.2658L28.9526 32.5992C29.3859 32.3492 29.7193 31.9325 29.8526 31.4325C29.9859 30.9325 29.9193 30.4158 29.6693 29.9825C28.7193 28.3492 28.6026 26.6658 29.3359 25.3825C30.0693 24.0992 31.5859 23.3658 33.4859 23.3658C34.5526 23.3658 35.4026 22.5158 35.4026 21.4492V18.5158C35.4026 17.4658 34.5526 16.5992 33.4859 16.5992C31.5859 16.5992 30.0693 15.8658 29.3359 14.5825C28.6026 13.2992 28.7193 11.6158 29.6693 9.98251C29.9193 9.54918 29.9859 9.03251 29.8526 8.53251C29.7193 8.03251 29.4026 7.63251 28.9693 7.36584L26.0859 5.71584C25.3693 5.28251 24.4193 5.53251 23.9859 6.26584L23.8026 6.58251C22.8526 8.23251 21.4693 9.16584 19.9859 9.16584C18.5026 9.16584 17.1193 8.23251 16.1693 6.58251L15.9859 6.24918C15.5693 5.54918 14.6359 5.29918 13.9193 5.71584L11.0359 7.38251C10.6026 7.63251 10.2693 8.04918 10.1359 8.54918C10.0026 9.04918 10.0693 9.56584 10.3193 9.99918C11.2693 11.6325 11.3859 13.3158 10.6526 14.5992C9.91927 15.8825 8.4026 16.6158 6.5026 16.6158C5.43594 16.6158 4.58594 17.4658 4.58594 18.5325V21.4658C4.58594 22.5158 5.43594 23.3825 6.5026 23.3825C8.4026 23.3825 9.91927 24.1158 10.6526 25.3992C11.3859 26.6825 11.2693 28.3658 10.3193 29.9992C10.0693 30.4325 10.0026 30.9492 10.1359 31.4492C10.2693 31.9492 10.5859 32.3492 11.0193 32.6158L13.9026 34.2658C14.2526 34.4825 14.6693 34.5325 15.0526 34.4325C15.4526 34.3325 15.7859 34.0658 16.0026 33.7158L16.1859 33.3992C17.1359 31.7658 18.5193 30.8158 20.0026 30.8158Z" fill="white"/>
</svg>
