<svg width="25" height="25" viewBox="0 0 25 25" fill="none" xmlns="http://www.w3.org/2000/svg">
<g clip-path="url(#clip0_81_3171)">
<path d="M24.2643 12.7763C24.2643 11.9605 24.1982 11.1404 24.0571 10.3379H12.7383V14.9589H19.22C18.951 16.4492 18.0868 17.7676 16.8213 18.6054V21.6037H20.6883C22.9591 19.5137 24.2643 16.4272 24.2643 12.7763Z" fill="#4285F4"/>
<path d="M12.7391 24.5013C15.9756 24.5013 18.705 23.4387 20.6936 21.6044L16.8266 18.606C15.7507 19.338 14.3618 19.7525 12.7435 19.7525C9.61291 19.7525 6.95849 17.6404 6.00607 14.8008H2.01562V17.8917C4.05274 21.9439 8.20192 24.5013 12.7391 24.5013Z" fill="#34A853"/>
<path d="M6.00082 14.8007C5.49816 13.3103 5.49816 11.6965 6.00082 10.2062V7.11523H2.01478C0.312781 10.506 0.312781 14.5009 2.01478 17.8916L6.00082 14.8007Z" fill="#FBBC04"/>
<path d="M12.7391 5.24966C14.4499 5.2232 16.1034 5.86697 17.3425 7.04867L20.7685 3.62262C18.5991 1.5855 15.7198 0.465534 12.7391 0.500809C8.20192 0.500809 4.05274 3.05822 2.01562 7.11481L6.00166 10.2058C6.94967 7.36173 9.6085 5.24966 12.7391 5.24966Z" fill="#EA4335"/>
</g>
<defs>
<clipPath id="clip0_81_3171">
<rect width="24" height="24" fill="white" transform="translate(0.5 0.5)"/>
</clipPath>
</defs>
</svg>
