<svg width="45" height="45" viewBox="0 0 45 45" fill="none" xmlns="http://www.w3.org/2000/svg">
<path d="M22.5 42.6562C12.675 42.6562 4.6875 34.6687 4.6875 24.8438C4.6875 15.0188 12.675 7.03125 22.5 7.03125C32.325 7.03125 40.3125 15.0188 40.3125 24.8438C40.3125 34.6687 32.325 42.6562 22.5 42.6562ZM22.5 9.84375C14.2313 9.84375 7.5 16.575 7.5 24.8438C7.5 33.1125 14.2313 39.8438 22.5 39.8438C30.7687 39.8438 37.5 33.1125 37.5 24.8438C37.5 16.575 30.7687 9.84375 22.5 9.84375Z" fill="white"/>
<path d="M22.5 25.7812C21.7312 25.7812 21.0938 25.1438 21.0938 24.375V15C21.0938 14.2312 21.7312 13.5938 22.5 13.5938C23.2687 13.5938 23.9062 14.2312 23.9062 15V24.375C23.9062 25.1438 23.2687 25.7812 22.5 25.7812Z" fill="white"/>
<path d="M28.125 5.15625H16.875C16.1062 5.15625 15.4688 4.51875 15.4688 3.75C15.4688 2.98125 16.1062 2.34375 16.875 2.34375H28.125C28.8938 2.34375 29.5312 2.98125 29.5312 3.75C29.5312 4.51875 28.8938 5.15625 28.125 5.15625Z" fill="white"/>
</svg>
