<svg xmlns="http://www.w3.org/2000/svg" width="1276" height="260" viewBox="0 0 1276 260"><rect width="100%" height="100%" fill="#DDDDDD"/><path fill="#999999" d="M352.56 164.965h16.9v12.03h-52.01v-12.03h19.05v-54.79q0-3.25.19-6.7l-13.51 11.31q-1.18.91-2.31 1.14-1.14.23-2.15.03-1-.19-1.79-.68-.77-.49-1.17-1.07l-5.07-6.96 28.67-24.37h13.2zm64.67-2.92h24.12q2.6 0 4.12 1.46 1.53 1.46 1.53 3.87v9.62h-64.48v-5.33q0-1.63.68-3.41.69-1.79 2.18-3.22l28.54-28.6q3.57-3.64 6.4-6.96 2.83-3.31 4.71-6.56 1.89-3.25 2.89-6.6 1.01-3.35 1.01-7.05 0-3.38-.97-5.95-.98-2.57-2.77-4.32-1.78-1.76-4.29-2.63-2.5-.88-5.62-.88-2.86 0-5.3.81-2.43.81-4.32 2.28-1.88 1.46-3.18 3.41t-1.95 4.29q-1.11 2.99-2.86 3.97-1.76.97-5.07.45l-8.45-1.5q.97-6.76 3.77-11.86 2.79-5.1 6.98-8.51 4.2-3.42 9.62-5.14 5.43-1.72 11.67-1.72 6.5 0 11.9 1.92 5.39 1.91 9.23 5.42 3.83 3.52 5.98 8.46 2.14 4.93 2.14 10.98 0 5.2-1.53 9.62-1.52 4.42-4.09 8.45t-6.01 7.8q-3.45 3.77-7.22 7.67l-21.19 21.64q3.06-.9 6.08-1.39t5.75-.49m41.8-79.04h64.93v6.96q0 3.11-.65 5.03t-1.3 3.22l-35.62 73.32q-1.1 2.27-3.12 3.87-2.01 1.59-5.39 1.59h-11.64l36.34-71.83q1.23-2.2 2.43-4.06 1.21-1.85 2.7-3.54h-44.98q-1.49 0-2.6-1.1-1.1-1.11-1.1-2.61zm131.17 0-27.89 34.12-3.25 4.03q2.73-1.36 5.88-2.11 3.16-.75 6.8-.75 5.33 0 10.36 1.76 5.04 1.75 8.88 5.3 3.83 3.54 6.17 8.8 2.34 5.27 2.34 12.29 0 6.57-2.4 12.32-2.41 5.75-6.76 10.04-4.36 4.29-10.5 6.76t-13.55 2.47q-7.54 0-13.52-2.4-5.98-2.41-10.21-6.73-4.22-4.33-6.47-10.4-2.24-6.08-2.24-13.49 0-6.63 2.7-13.62t8.35-14.53l22.43-30.09q1.17-1.56 3.41-2.67 2.24-1.1 5.17-1.1zm-24.25 81.9q3.84 0 7.05-1.3 3.22-1.3 5.53-3.64t3.61-5.49q1.3-3.16 1.3-6.86 0-4.03-1.24-7.25-1.23-3.21-3.51-5.46-2.27-2.24-5.46-3.41-3.18-1.17-7.02-1.17-3.83 0-6.95 1.3t-5.33 3.61-3.45 5.46q-1.23 3.15-1.23 6.79 0 3.9 1.07 7.12 1.07 3.21 3.18 5.49 2.12 2.27 5.24 3.54t7.21 1.27m137.8-9.43-8.51 8.39-22.04-22.03-22.23 22.16-8.51-8.39 22.23-22.29-21.19-21.19 8.45-8.45 21.19 21.19 21.06-21.06 8.58 8.45-21.13 21.12zm78.26 6.57h24.12q2.6 0 4.12 1.46 1.53 1.46 1.53 3.87v9.62H747.3v-5.33q0-1.63.68-3.41.69-1.79 2.18-3.22l28.54-28.6q3.57-3.64 6.4-6.96 2.83-3.31 4.71-6.56 1.89-3.25 2.89-6.6 1.01-3.35 1.01-7.05 0-3.38-.97-5.95-.98-2.57-2.77-4.32-1.78-1.76-4.29-2.63-2.5-.88-5.62-.88-2.86 0-5.3.81-2.43.81-4.32 2.28-1.88 1.46-3.18 3.41t-1.95 4.29q-1.11 2.99-2.86 3.97-1.76.97-5.07.45l-8.45-1.5q.97-6.76 3.77-11.86 2.79-5.1 6.98-8.51 4.2-3.42 9.62-5.14 5.43-1.72 11.67-1.72 6.5 0 11.9 1.92 5.39 1.91 9.23 5.42 3.83 3.52 5.98 8.46 2.14 4.93 2.14 10.98 0 5.2-1.53 9.62-1.52 4.42-4.09 8.45t-6.01 7.8q-3.45 3.77-7.22 7.67l-21.19 21.64q3.06-.9 6.08-1.39t5.75-.49m97.57-79.04-27.89 34.12-3.25 4.03q2.73-1.36 5.88-2.11 3.16-.75 6.8-.75 5.33 0 10.36 1.76 5.04 1.75 8.88 5.3 3.83 3.54 6.17 8.8 2.34 5.27 2.34 12.29 0 6.57-2.4 12.32-2.41 5.75-6.76 10.04-4.36 4.29-10.5 6.76t-13.55 2.47q-7.54 0-13.52-2.4-5.98-2.41-10.21-6.73-4.22-4.33-6.47-10.4-2.24-6.08-2.24-13.49 0-6.63 2.7-13.62t8.35-14.53l22.43-30.09q1.17-1.56 3.41-2.67 2.24-1.1 5.17-1.1zm-24.25 81.9q3.84 0 7.05-1.3 3.22-1.3 5.53-3.64t3.61-5.49q1.3-3.16 1.3-6.86 0-4.03-1.24-7.25-1.23-3.21-3.51-5.46-2.27-2.24-5.46-3.41-3.18-1.17-7.02-1.17-3.83 0-6.95 1.3t-5.33 3.61-3.45 5.46q-1.23 3.15-1.23 6.79 0 3.9 1.07 7.12 1.07 3.21 3.18 5.49 2.12 2.27 5.24 3.54t7.21 1.27m109.98-34.91q0 12.29-2.63 21.36t-7.28 14.98-10.99 8.81q-6.33 2.89-13.68 2.89-7.34 0-13.62-2.89-6.27-2.9-10.88-8.81-4.62-5.91-7.22-14.98t-2.6-21.36q0-12.34 2.6-21.38t7.22-14.95q4.61-5.92 10.88-8.81 6.28-2.89 13.62-2.89 7.35 0 13.68 2.89 6.34 2.89 10.99 8.81 4.65 5.91 7.28 14.95t2.63 21.38m-16.57 0q0-10.2-1.5-16.9-1.49-6.69-4-10.66-2.5-3.96-5.75-5.55t-6.76-1.59q-3.44 0-6.66 1.59t-5.69 5.55q-2.47 3.97-3.93 10.66-1.46 6.7-1.46 16.9 0 10.21 1.46 16.9 1.46 6.7 3.93 10.66 2.47 3.97 5.69 5.56t6.66 1.59q3.51 0 6.76-1.59t5.75-5.56q2.51-3.96 4-10.66 1.5-6.69 1.5-16.9"/></svg>