<svg xmlns="http://www.w3.org/2000/svg" width="269" height="180" viewBox="0 0 269 180"><rect width="100%" height="100%" fill="#DDDDDD"/><path fill="#999999" d="M63.415 98.875h6.68q.72 0 1.14.4.43.41.43 1.08v2.66h-17.86v-1.48q0-.45.19-.94.19-.5.6-.89l7.9-7.92q.99-1.01 1.78-1.93.78-.92 1.3-1.82t.8-1.82q.28-.93.28-1.96 0-.93-.27-1.64t-.76-1.2q-.5-.49-1.19-.73t-1.56-.24q-.79 0-1.47.22-.67.23-1.19.63-.52.41-.88.95t-.54 1.19q-.31.82-.8 1.09-.48.27-1.4.13l-2.34-.41q.27-1.88 1.04-3.29.78-1.41 1.94-2.36 1.16-.94 2.66-1.42 1.51-.48 3.23-.48 1.8 0 3.3.53 1.49.54 2.55 1.51 1.07.97 1.66 2.34t.59 3.04q0 1.44-.42 2.66-.42 1.23-1.13 2.34-.71 1.12-1.67 2.16-.95 1.05-2 2.13l-5.86 5.99q.84-.25 1.68-.39.84-.13 1.59-.13m27.02-21.89-7.72 9.45-.9 1.12q.75-.38 1.63-.59.87-.2 1.88-.2 1.47 0 2.87.48 1.39.49 2.46 1.47 1.06.98 1.71 2.44.64 1.46.64 3.4 0 1.82-.66 3.41-.67 1.59-1.87 2.78-1.21 1.19-2.91 1.87-1.7.69-3.75.69-2.09 0-3.75-.67-1.65-.66-2.82-1.86t-1.79-2.88q-.63-1.68-.63-3.74 0-1.83.75-3.77.75-1.93 2.31-4.02l6.21-8.33q.33-.44.95-.74.62-.31 1.43-.31zm-6.71 22.68q1.06 0 1.95-.36t1.53-1.01q.64-.64 1-1.52.36-.87.36-1.9 0-1.11-.34-2-.35-.89-.98-1.52-.63-.62-1.51-.94t-1.94-.32-1.93.36q-.86.36-1.47.99-.62.64-.96 1.52-.34.87-.34 1.88 0 1.08.3 1.97.29.89.88 1.52.58.63 1.45.98.86.35 2 .35m16.41-14.87q0 2.18 1.13 3.32 1.12 1.15 3.19 1.15 1.08 0 1.93-.34.84-.35 1.42-.94t.87-1.4q.3-.81.3-1.75 0-1.06-.32-1.9-.33-.84-.92-1.41-.6-.58-1.41-.88-.82-.31-1.8-.31-1 0-1.81.33-.81.34-1.39.93t-.88 1.41q-.31.82-.31 1.79m-2.18 18.22 8.09-10.1q.3-.38.57-.74t.52-.72q-.9.58-1.98.88-1.08.29-2.26.29-1.35 0-2.65-.46-1.3-.47-2.3-1.42-1.01-.94-1.63-2.34-.62-1.39-.62-3.26 0-1.75.64-3.28.65-1.53 1.82-2.68t2.81-1.82 3.62-.67q2 0 3.59.63t2.72 1.77q1.12 1.13 1.73 2.72.6 1.58.6 3.47 0 1.21-.21 2.29t-.58 2.07q-.38 1-.92 1.96-.54.95-1.21 1.89l-5.96 8.49q-.3.44-.91.73-.62.3-1.39.3zm44.81-5.96-2.36 2.32-6.1-6.1-6.16 6.14-2.36-2.32 6.16-6.18-5.87-5.86 2.34-2.34 5.87 5.86 5.83-5.83 2.38 2.34-5.85 5.85zm24.64 2.63h4.68v3.33h-14.4v-3.33h5.27v-15.17q0-.9.06-1.86l-3.75 3.13q-.32.26-.64.32-.31.06-.59.01-.28-.06-.5-.19-.21-.14-.32-.3l-1.4-1.92 7.93-6.75h3.66zm17.37.14q1.1 0 1.92-.31.83-.32 1.4-.87.57-.56.85-1.34.29-.77.29-1.67 0-2.14-1.19-3.24-1.18-1.1-3.27-1.1t-3.28 1.1-1.19 3.24q0 .9.29 1.67.29.78.86 1.34.56.55 1.39.87.83.31 1.93.31m0-19.78q-.99 0-1.71.31-.72.3-1.2.82-.48.51-.7 1.18-.23.66-.23 1.4 0 .77.19 1.5t.64 1.3 1.19.91 1.82.34 1.82-.34q.73-.34 1.18-.91t.64-1.3.19-1.5q0-.74-.23-1.4-.24-.67-.7-1.18-.47-.52-1.19-.82-.72-.31-1.71-.31m4.39 9.4q2.38.77 3.51 2.36 1.13 1.6 1.13 3.9 0 1.73-.65 3.13-.66 1.41-1.85 2.4t-2.85 1.53q-1.67.54-3.68.54-2.02 0-3.68-.54-1.67-.54-2.86-1.53-1.18-.99-1.84-2.4-.66-1.4-.66-3.13 0-2.3 1.14-3.9 1.13-1.59 3.51-2.36-1.89-.79-2.84-2.25-.94-1.46-.94-3.51 0-1.48.6-2.76.6-1.27 1.68-2.22 1.08-.94 2.59-1.48 1.5-.53 3.3-.53t3.3.53q1.5.54 2.58 1.48 1.08.95 1.69 2.22.6 1.28.6 2.76 0 2.05-.94 3.51-.95 1.46-2.84 2.25m26.03.56q0 3.4-.73 5.91t-2.02 4.15q-1.28 1.64-3.04 2.44-1.75.8-3.79.8-2.03 0-3.77-.8t-3.01-2.44q-1.28-1.64-2-4.15t-.72-5.91q0-3.42.72-5.93.72-2.5 2-4.14 1.27-1.63 3.01-2.44 1.74-.8 3.77-.8 2.04 0 3.79.8 1.76.81 3.04 2.44 1.29 1.64 2.02 4.14.73 2.51.73 5.93m-4.59 0q0-2.83-.42-4.68-.41-1.86-1.1-2.96-.7-1.09-1.6-1.54-.9-.44-1.87-.44-.95 0-1.84.44-.89.45-1.58 1.54-.68 1.1-1.09 2.96-.4 1.85-.4 4.68 0 2.82.4 4.68.41 1.85 1.09 2.95.69 1.1 1.58 1.54t1.84.44q.97 0 1.87-.44t1.6-1.54q.69-1.1 1.1-2.95.42-1.86.42-4.68"/></svg>