<svg xmlns="http://www.w3.org/2000/svg" x="0px" y="0px" width="25" height="25" viewBox="0,0,256,256">
<g fill="none" fill-rule="nonzero" stroke="none" stroke-width="1" stroke-linecap="butt" stroke-linejoin="miter" stroke-miterlimit="10" stroke-dasharray="" stroke-dashoffset="0" font-family="none" font-weight="none" font-size="none" text-anchor="none" style="mix-blend-mode: normal"><g transform="scale(2.56,2.56)"><path d="M13,27c-1.10457,0 -2,0.89543 -2,2c0,1.10457 0.89543,2 2,2c1.10457,0 2,-0.89543 2,-2c0,-1.10457 -0.89543,-2 -2,-2z" fill="#d1efed"></path><path d="M77,12c-0.55228,0 -1,0.44772 -1,1c0,0.55228 0.44772,1 1,1c0.55228,0 1,-0.44772 1,-1c0,-0.55228 -0.44772,-1 -1,-1z" fill="#586574"></path><path d="M50,13c-20.43454,0 -37,16.56546 -37,37c0,20.43454 16.56546,37 37,37c20.43454,0 37,-16.56546 37,-37c0,-20.43454 -16.56546,-37 -37,-37z" fill="#112339"></path><path d="M83,11c-2.20914,0 -4,1.79086 -4,4c0,2.20914 1.79086,4 4,4c2.20914,0 4,-1.79086 4,-4c0,-2.20914 -1.79086,-4 -4,-4z" fill="#586574"></path><path d="M87,22c-1.10457,0 -2,0.89543 -2,2c0,1.10457 0.89543,2 2,2c1.10457,0 2,-0.89543 2,-2c0,-1.10457 -0.89543,-2 -2,-2z" fill="#d1efed"></path><path d="M81,74c-1.10457,0 -2,0.89543 -2,2c0,1.10457 0.89543,2 2,2c1.10457,0 2,-0.89543 2,-2c0,-1.10457 -0.89543,-2 -2,-2zM15,59c-2.20914,0 -4,1.79086 -4,4c0,2.20914 1.79086,4 4,4c2.20914,0 4,-1.79086 4,-4c0,-2.20914 -1.79086,-4 -4,-4z" fill="#586574"></path><path d="M25,85c-1.10457,0 -2,0.89543 -2,2c0,1.10457 0.89543,2 2,2c1.10457,0 2,-0.89543 2,-2c0,-1.10457 -0.89543,-2 -2,-2z" fill="#d1efed"></path><path d="M18.5,51c-1.38071,0 -2.5,1.11929 -2.5,2.5c0,1.38071 1.11929,2.5 2.5,2.5c1.38071,0 2.5,-1.11929 2.5,-2.5c0,-1.38071 -1.11929,-2.5 -2.5,-2.5z" fill="#ffffff"></path><path d="M21,66c-0.55228,0 -1,0.44772 -1,1c0,0.55228 0.44772,1 1,1c0.55228,0 1,-0.44772 1,-1c0,-0.55228 -0.44772,-1 -1,-1z" fill="#586574"></path><path d="M80,33c-0.55228,0 -1,0.44772 -1,1c0,0.55228 0.44772,1 1,1c0.55228,0 1,-0.44772 1,-1c0,-0.55228 -0.44772,-1 -1,-1z" fill="#ffffff"></path><path d="M72.4,44v20.4c0,4.3 -3.5,7.8 -7.8,7.8h-29.1c-4.3,0 -7.8,-3.5 -7.8,-7.8v-28.8c0,-4.3 3.5,-7.8 7.8,-7.8h29.1c3.6,0 6.6,2.4 7.6,5.8" fill="#d1efed"></path><path d="M64.5,73h-29c-4.7,0 -8.5,-3.8 -8.5,-8.5v-28.9c0,-4.7 3.8,-8.5 8.5,-8.5h29.1c3.8,0 7.2,2.6 8.2,6.3c0.1,0.4 -0.1,0.8 -0.5,0.9c-0.4,0.1 -0.8,-0.1 -0.9,-0.5c-0.9,-3.1 -3.7,-5.2 -6.9,-5.2h-29c-3.9,0 -7.1,3.2 -7.1,7.1v28.8c0,3.9 3.2,7.1 7.1,7.1h29.1c3.9,0 7.1,-3.2 7.1,-7.1v-20.5c0,-0.4 0.3,-0.7 0.7,-0.7c0.4,0 0.7,0.3 0.7,0.7v20.4c0,4.7 -3.9,8.6 -8.6,8.6z" fill="#472b29"></path><path d="M68.5,59.4c-0.3,0 -0.5,-0.2 -0.5,-0.5v-3.9c0,-0.3 0.2,-0.5 0.5,-0.5c0.3,0 0.5,0.2 0.5,0.5v3.9c0,0.3 -0.2,0.5 -0.5,0.5zM68.5,52.5c-0.3,0 -0.5,-0.2 -0.5,-0.5v-2c0,-0.3 0.2,-0.5 0.5,-0.5c0.3,0 0.5,0.2 0.5,0.5v2c0,0.3 -0.2,0.5 -0.5,0.5z" fill="#472b29"></path><path d="M64,69h-28c-2.8,0 -5,-2.2 -5,-5v-28c0,-2.8 2.2,-5 5,-5h25.4c0.3,0 0.5,0.2 0.5,0.5c0,0.3 -0.2,0.5 -0.5,0.5h-25.4c-2.2,0 -4,1.8 -4,4v28c0,2.2 1.8,4 4,4h28c2.2,0 4,-1.8 4,-4v-2.4c0,-0.3 0.2,-0.5 0.5,-0.5c0.3,0 0.5,0.2 0.5,0.5v2.4c0,2.8 -2.2,5 -5,5z" fill="#472b29"></path><g><path d="M49.5,62.5h-0.1c-0.1,0 -0.1,0 -0.2,0c-0.4,0 -0.8,-0.1 -1,-0.4l-8.3,-8.2c-0.3,-0.3 -0.4,-0.6 -0.4,-1c0,-0.4 0.2,-0.8 0.4,-1c0.3,-0.3 0.6,-0.4 1,-0.4c0.4,0 0.8,0.2 1,0.4l7.1,7.4l24,-23.3c0.3,-0.3 0.6,-0.4 1,-0.4c0.4,0 0.8,0.2 1,0.4c0.3,0.3 0.4,0.6 0.4,1c0,0.4 -0.2,0.8 -0.4,1l-24.4,24.1c-0.1,0.1 -0.2,0.2 -0.4,0.3c0,0 -0.1,0 -0.1,0.1c-0.1,0 -0.2,0.1 -0.3,0.1c-0.1,-0.1 -0.1,-0.1 -0.3,-0.1z" fill="#00ac9c"></path><path d="M74.2,36c0.3,0 0.5,0.1 0.7,0.3c0.4,0.4 0.4,1 0,1.4l-24.6,24c-0.1,0.1 -0.2,0.1 -0.3,0.2h-0.1c-0.1,0 -0.1,0 -0.2,0h-0.1c-0.1,0 -0.1,0 -0.1,0v0c-0.1,0 -0.1,0 -0.2,0c-0.2,0 -0.5,-0.1 -0.7,-0.3l-8.3,-8.2c-0.4,-0.4 -0.4,-1 0,-1.4c0.2,-0.2 0.4,-0.3 0.7,-0.3c0.3,0 0.5,0.1 0.7,0.3l7.5,7.8l24.4,-23.6c0.1,-0.1 0.3,-0.2 0.6,-0.2M74.2,35c-0.5,0 -1,0.2 -1.4,0.6l-23.6,22.9l-6.8,-7.1c-0.4,-0.4 -0.9,-0.6 -1.4,-0.6c-0.5,0 -1,0.2 -1.4,0.6c-0.4,0.4 -0.6,0.9 -0.6,1.4c0,0.5 0.2,1 0.6,1.4l8.3,8.2c0.4,0.4 0.8,0.6 1.4,0.6h0.1c0.1,0 0.1,0 0.2,0c0.1,0 0.3,0 0.3,0c0.1,0 0.2,0 0.3,-0.1c0.1,0 0.2,-0.1 0.2,-0.1c0.2,-0.1 0.4,-0.2 0.5,-0.4l24.6,-24c0.4,-0.4 0.6,-0.9 0.6,-1.4c0,-0.5 -0.2,-1 -0.6,-1.4c-0.3,-0.4 -0.8,-0.6 -1.3,-0.6z" fill="#472b29"></path></g></g></g>
</svg>