<svg width="186" height="181" viewBox="0 0 186 181" fill="none" xmlns="http://www.w3.org/2000/svg">
<g clip-path="url(#clip0_2729_85833)">
<path d="M88.4703 181C123.954 181 152.72 177.754 152.72 173.749C152.72 169.744 123.954 166.498 88.4703 166.498C52.9861 166.498 24.2205 169.744 24.2205 173.749C24.2205 177.754 52.9861 181 88.4703 181Z" fill="#F5FAFF"/>
<path d="M79.2549 121.787H75.9961V163.513H79.2549V121.787Z" fill="#DDE6F0"/>
<path d="M78.247 172.413C81.5316 168.911 82.0886 164.1 79.4912 161.668C76.8938 159.235 72.1255 160.103 68.841 163.606C65.5564 167.108 64.9994 171.919 67.5968 174.351C70.1942 176.783 74.9625 175.916 78.247 172.413Z" fill="#DDE6F0"/>
<path d="M100.948 121.787H97.6891V163.513H100.948V121.787Z" fill="#DDE6F0"/>
<path d="M109.344 174.348C111.941 171.916 111.384 167.105 108.1 163.602C104.815 160.1 100.047 159.232 97.4495 161.664C94.8521 164.097 95.4091 168.908 98.6936 172.41C101.978 175.913 106.746 176.78 109.344 174.348Z" fill="#DDE6F0"/>
<path d="M151.626 27.6181C154.599 27.6181 156.96 30.1147 156.797 33.0781L152.108 117.568C151.876 121.74 148.86 125.326 145.583 125.326H28.5691C25.6724 125.326 23.6084 122.496 23.8112 118.813L28.9638 25.9646C29.1955 21.7927 32.2118 18.207 35.4887 18.207H73.1174C76.1409 18.207 78.5271 20.7688 78.3099 23.7828L78.0347 27.6181H151.623H151.626Z" fill="#E6EFF9"/>
<path d="M153.144 98.862L152.104 117.568C151.873 121.74 148.856 125.326 145.579 125.326H28.5691C25.6724 125.326 23.6084 122.497 23.8112 118.813L28.3519 37.0078H142.621C145.598 37.0078 148.082 39.338 148.342 42.3773L153.144 98.862Z" fill="#F5FAFF"/>
<path d="M166.845 132.284L163.605 131.93C164.264 125.912 165.281 105.173 150.703 90.9166C146.901 87.2007 142.364 84.2446 137.219 82.1315L138.457 79.1211C143.994 81.3934 148.882 84.5811 152.984 88.5937C168.616 103.877 167.548 125.902 166.845 132.288V132.284Z" fill="#DDE6F0"/>
<path d="M141.694 125.325H24.6802C21.7835 125.325 19.372 123.114 19.1185 120.23L18.5898 114.206L12.7601 47.6264C12.4741 44.3664 15.0486 41.5586 18.3219 41.5586H135.336C138.233 41.5586 140.648 43.773 140.898 46.6531L147.256 119.261C147.542 122.521 144.968 125.325 141.694 125.325Z" fill="#E6EFF9"/>
<path d="M157.579 3.02125C157.579 1.35266 156.226 0 154.556 0C152.886 0 151.532 1.35266 151.532 3.02125V16.0144C151.532 17.683 152.886 19.0357 154.556 19.0357C156.226 19.0357 157.579 17.683 157.579 16.0144V3.02125Z" fill="#E6EFF9"/>
<path d="M174.297 10.0745C175.242 8.69938 174.894 6.81847 173.517 5.87337C172.141 4.92827 170.259 5.27687 169.313 6.652L161.948 17.36C161.002 18.7352 161.351 20.6161 162.727 21.5612C164.104 22.5063 165.986 22.1577 166.932 20.7825L174.297 10.0745Z" fill="#E6EFF9"/>
<path d="M184.05 25.3624C185.609 24.7647 186.388 23.0173 185.79 21.4594C185.192 19.9016 183.443 19.1232 181.884 19.7209L169.744 24.3751C168.185 24.9728 167.406 26.7203 168.004 28.2781C168.603 29.836 170.351 30.6144 171.91 30.0167L184.05 25.3624Z" fill="#E6EFF9"/>
<path d="M91.5733 71.7639C91.5733 98.7199 69.7065 120.574 42.7306 120.574C33.9498 120.574 25.7086 118.259 18.5898 114.206L12.7601 47.6264C12.4741 44.3664 15.0486 41.5586 18.3219 41.5586H81.098C87.6591 49.8697 91.5733 60.3627 91.5733 71.7639Z" fill="#DDE6F0"/>
<path d="M4.57322 134.747C3.12846 125.632 2.66136 111.608 8.63952 96.5742C11.4276 89.5656 15.331 83.0419 20.2482 77.1875L22.7467 79.2789C18.0539 84.8691 14.328 91.0925 11.6702 97.779C5.96365 112.129 6.41265 125.528 7.79222 134.24L4.57322 134.75V134.747Z" fill="#DDE6F0"/>
<path d="M5.27208 139.104C8.18376 139.104 10.5442 135.726 10.5442 131.56C10.5442 127.393 8.18376 124.016 5.27208 124.016C2.36039 124.016 0 127.393 0 131.56C0 135.726 2.36039 139.104 5.27208 139.104Z" fill="#DDE6F0"/>
<path d="M164.379 139.104C167.291 139.104 169.651 135.726 169.651 131.56C169.651 127.393 167.291 124.016 164.379 124.016C161.468 124.016 159.107 127.393 159.107 131.56C159.107 135.726 161.468 139.104 164.379 139.104Z" fill="#DDE6F0"/>
<path d="M61.4762 75.3355C65.6617 75.3355 69.0548 71.9449 69.0548 67.7625C69.0548 63.58 65.6617 60.1895 61.4762 60.1895C57.2906 60.1895 53.8976 63.58 53.8976 67.7625C53.8976 71.9449 57.2906 75.3355 61.4762 75.3355Z" fill="#B8CADE"/>
<path d="M58.0363 69.2785C60.3221 69.2785 62.175 67.2439 62.175 64.734C62.175 62.2241 60.3221 60.1895 58.0363 60.1895C55.7506 60.1895 53.8976 62.2241 53.8976 64.734C53.8976 67.2439 55.7506 69.2785 58.0363 69.2785Z" fill="#F5FAFF"/>
<path d="M66.6937 71.9318C66.8264 71.0404 66.2765 70.22 65.4655 70.0995C64.6545 69.9789 63.8895 70.6039 63.7569 71.4953C63.6242 72.3867 64.174 73.2071 64.985 73.3276C65.796 73.4482 66.561 72.8232 66.6937 71.9318Z" fill="#F5FAFF"/>
<path d="M100.227 75.3355C104.413 75.3355 107.806 71.9449 107.806 67.7625C107.806 63.58 104.413 60.1895 100.227 60.1895C96.0419 60.1895 92.6488 63.58 92.6488 67.7625C92.6488 71.9449 96.0419 75.3355 100.227 75.3355Z" fill="#B8CADE"/>
<path d="M96.7911 69.2785C98.6909 69.2785 100.231 67.2439 100.231 64.734C100.231 62.2241 98.6909 60.1895 96.7911 60.1895C94.8913 60.1895 93.3512 62.2241 93.3512 64.734C93.3512 67.2439 94.8913 69.2785 96.7911 69.2785Z" fill="#F5FAFF"/>
<path d="M105.41 72.2038C105.523 71.4428 104.804 70.7053 103.803 70.5566C102.802 70.4078 101.899 70.9041 101.785 71.6651C101.672 72.4261 102.392 73.1636 103.392 73.3123C104.393 73.4611 105.297 72.9648 105.41 72.2038Z" fill="#F5FAFF"/>
<path d="M61.936 95.4569C61.8564 95.4569 61.7767 95.4315 61.7079 95.3773C61.5522 95.2506 61.5269 95.0227 61.6536 94.8671C63.1309 93.0399 71.1694 83.9472 84.3931 84.3886C96.5377 84.7975 103.895 93.1882 105.25 94.8671C105.376 95.0227 105.351 95.2506 105.195 95.3773C105.04 95.5039 104.811 95.4786 104.685 95.323C103.367 93.6875 96.1973 85.5103 84.3713 85.1159C84.0744 85.105 83.7775 85.1014 83.4878 85.1014C70.8472 85.1014 63.0803 94.2592 62.2185 95.3266C62.1461 95.4171 62.041 95.4605 61.936 95.4605V95.4569Z" fill="#B8CADE"/>
</g>
<defs>
<clipPath id="clip0_2729_85833">
<rect width="186" height="181" fill="white"/>
</clipPath>
</defs>
</svg>
